<?xml version="1.0" encoding="UTF-8"?>
<svg id="Layer_2" data-name="Layer 2" xmlns="http://www.w3.org/2000/svg" viewBox="0 0 1313.46 150.96">
  <defs>
    <style>
      .cls-1 {
        fill: #221e44;
      }
    </style>
  </defs>
  <g id="Layer_1-2" data-name="Layer 1">
    <g>
      <g>
        <path class="cls-1" d="m233.12,103.32h-33.36l-5.52,15.96h-17.64l30.12-83.88h19.56l30.12,83.88h-17.76l-5.52-15.96Zm-4.56-13.44l-12.12-35.04-12.12,35.04h24.24Z"/>
        <path class="cls-1" d="m278.48,117.42c-4.32-1.96-7.74-4.62-10.26-7.98-2.52-3.36-3.9-7.08-4.14-11.16h16.92c.32,2.56,1.58,4.68,3.78,6.36,2.2,1.68,4.94,2.52,8.22,2.52s5.7-.64,7.5-1.92c1.8-1.28,2.7-2.92,2.7-4.92,0-2.16-1.1-3.78-3.3-4.86-2.2-1.08-5.7-2.26-10.5-3.54-4.96-1.2-9.02-2.44-12.18-3.72-3.16-1.28-5.88-3.24-8.16-5.88-2.28-2.64-3.42-6.2-3.42-10.68,0-3.68,1.06-7.04,3.18-10.08,2.12-3.04,5.16-5.44,9.12-7.2s8.62-2.64,13.98-2.64c7.92,0,14.24,1.98,18.96,5.94,4.72,3.96,7.32,9.3,7.8,16.02h-16.08c-.24-2.64-1.34-4.74-3.3-6.3-1.96-1.56-4.58-2.34-7.86-2.34-3.04,0-5.38.56-7.02,1.68-1.64,1.12-2.46,2.68-2.46,4.68,0,2.24,1.12,3.94,3.36,5.1,2.24,1.16,5.72,2.34,10.44,3.54,4.8,1.2,8.76,2.44,11.88,3.72,3.12,1.28,5.82,3.26,8.1,5.94,2.28,2.68,3.46,6.22,3.54,10.62,0,3.84-1.06,7.28-3.18,10.32-2.12,3.04-5.16,5.42-9.12,7.14-3.96,1.72-8.58,2.58-13.86,2.58s-10.32-.98-14.64-2.94Z"/>
        <path class="cls-1" d="m358.82,54.78c3.8-2.04,8.14-3.06,13.02-3.06,5.68,0,10.82,1.4,15.42,4.2,4.6,2.8,8.24,6.78,10.92,11.94,2.68,5.16,4.02,11.14,4.02,17.94s-1.34,12.82-4.02,18.06c-2.68,5.24-6.32,9.3-10.92,12.18-4.6,2.88-9.74,4.32-15.42,4.32-4.88,0-9.18-1-12.9-3-3.72-2-6.74-4.52-9.06-7.56v41.16h-16.8V52.8h16.8v9.6c2.16-3.04,5.14-5.58,8.94-7.62Zm23.76,20.64c-1.64-2.92-3.8-5.14-6.48-6.66-2.68-1.52-5.58-2.28-8.7-2.28s-5.9.78-8.58,2.34c-2.68,1.56-4.84,3.82-6.48,6.78-1.64,2.96-2.46,6.44-2.46,10.44s.82,7.48,2.46,10.44c1.64,2.96,3.8,5.22,6.48,6.78,2.68,1.56,5.54,2.34,8.58,2.34s6.02-.8,8.7-2.4c2.68-1.6,4.84-3.88,6.48-6.84,1.64-2.96,2.46-6.48,2.46-10.56s-.82-7.46-2.46-10.38Z"/>
        <path class="cls-1" d="m475.76,91.08h-48.6c.4,4.8,2.08,8.56,5.04,11.28,2.96,2.72,6.6,4.08,10.92,4.08,6.24,0,10.68-2.68,13.32-8.04h18.12c-1.92,6.4-5.6,11.66-11.04,15.78-5.44,4.12-12.12,6.18-20.04,6.18-6.4,0-12.14-1.42-17.22-4.26-5.08-2.84-9.04-6.86-11.88-12.06-2.84-5.2-4.26-11.2-4.26-18s1.4-12.92,4.2-18.12c2.8-5.2,6.72-9.2,11.76-12,5.04-2.8,10.84-4.2,17.4-4.2s11.98,1.36,16.98,4.08c5,2.72,8.88,6.58,11.64,11.58,2.76,5,4.14,10.74,4.14,17.22,0,2.4-.16,4.56-.48,6.48Zm-16.92-11.28c-.08-4.32-1.64-7.78-4.68-10.38-3.04-2.6-6.76-3.9-11.16-3.9-4.16,0-7.66,1.26-10.5,3.78-2.84,2.52-4.58,6.02-5.22,10.5h31.56Z"/>
        <path class="cls-1" d="m488.36,67.98c2.8-5.16,6.68-9.16,11.64-12,4.96-2.84,10.64-4.26,17.04-4.26,8.24,0,15.06,2.06,20.46,6.18,5.4,4.12,9.02,9.9,10.86,17.34h-18.12c-.96-2.88-2.58-5.14-4.86-6.78-2.28-1.64-5.1-2.46-8.46-2.46-4.8,0-8.6,1.74-11.4,5.22-2.8,3.48-4.2,8.42-4.2,14.82s1.4,11.22,4.2,14.7c2.8,3.48,6.6,5.22,11.4,5.22,6.8,0,11.24-3.04,13.32-9.12h18.12c-1.84,7.2-5.48,12.92-10.92,17.16-5.44,4.24-12.24,6.36-20.4,6.36-6.4,0-12.08-1.42-17.04-4.26-4.96-2.84-8.84-6.84-11.64-12-2.8-5.16-4.2-11.18-4.2-18.06s1.4-12.9,4.2-18.06Z"/>
        <path class="cls-1" d="m580.28,66.6v32.16c0,2.24.54,3.86,1.62,4.86,1.08,1,2.9,1.5,5.46,1.5h7.8v14.16h-10.56c-14.16,0-21.24-6.88-21.24-20.64v-32.04h-7.92v-13.8h7.92v-16.44h16.92v16.44h14.88v13.8h-14.88Z"/>
        <path class="cls-1" d="m687.19,103.32h-33.36l-5.52,15.96h-17.64l30.12-83.88h19.56l30.12,83.88h-17.76l-5.52-15.96Zm-4.56-13.44l-12.12-35.04-12.12,35.04h24.24Z"/>
        <path class="cls-1" d="m721.63,67.98c2.8-5.16,6.68-9.16,11.64-12,4.96-2.84,10.64-4.26,17.04-4.26,8.24,0,15.06,2.06,20.46,6.18,5.4,4.12,9.02,9.9,10.86,17.34h-18.12c-.96-2.88-2.58-5.14-4.86-6.78-2.28-1.64-5.1-2.46-8.46-2.46-4.8,0-8.6,1.74-11.4,5.22-2.8,3.48-4.2,8.42-4.2,14.82s1.4,11.22,4.2,14.7c2.8,3.48,6.6,5.22,11.4,5.22,6.8,0,11.24-3.04,13.32-9.12h18.12c-1.84,7.2-5.48,12.92-10.92,17.16-5.44,4.24-12.24,6.36-20.4,6.36-6.4,0-12.08-1.42-17.04-4.26-4.96-2.84-8.84-6.84-11.64-12-2.8-5.16-4.2-11.18-4.2-18.06s1.4-12.9,4.2-18.06Z"/>
        <path class="cls-1" d="m793.87,67.98c2.8-5.16,6.68-9.16,11.64-12,4.96-2.84,10.64-4.26,17.04-4.26,8.24,0,15.06,2.06,20.46,6.18,5.4,4.12,9.02,9.9,10.86,17.34h-18.12c-.96-2.88-2.58-5.14-4.86-6.78-2.28-1.64-5.1-2.46-8.46-2.46-4.8,0-8.6,1.74-11.4,5.22-2.8,3.48-4.2,8.42-4.2,14.82s1.4,11.22,4.2,14.7c2.8,3.48,6.6,5.22,11.4,5.22,6.8,0,11.24-3.04,13.32-9.12h18.12c-1.84,7.2-5.48,12.92-10.92,17.16-5.44,4.24-12.24,6.36-20.4,6.36-6.4,0-12.08-1.42-17.04-4.26-4.96-2.84-8.84-6.84-11.64-12-2.8-5.16-4.2-11.18-4.2-18.06s1.4-12.9,4.2-18.06Z"/>
        <path class="cls-1" d="m878.47,116.1c-5.12-2.84-9.14-6.86-12.06-12.06-2.92-5.2-4.38-11.2-4.38-18s1.5-12.8,4.5-18c3-5.2,7.1-9.22,12.3-12.06,5.2-2.84,11-4.26,17.4-4.26s12.2,1.42,17.4,4.26c5.2,2.84,9.3,6.86,12.3,12.06,3,5.2,4.5,11.2,4.5,18s-1.54,12.8-4.62,18c-3.08,5.2-7.24,9.22-12.48,12.06-5.24,2.84-11.1,4.26-17.58,4.26s-12.16-1.42-17.28-4.26Zm25.86-12.6c2.68-1.48,4.82-3.7,6.42-6.66,1.6-2.96,2.4-6.56,2.4-10.8,0-6.32-1.66-11.18-4.98-14.58-3.32-3.4-7.38-5.1-12.18-5.1s-8.82,1.7-12.06,5.1c-3.24,3.4-4.86,8.26-4.86,14.58s1.58,11.18,4.74,14.58c3.16,3.4,7.14,5.1,11.94,5.1,3.04,0,5.9-.74,8.58-2.22Z"/>
        <path class="cls-1" d="m968.05,54.84c3.48-2,7.46-3,11.94-3v17.64h-4.44c-5.28,0-9.26,1.24-11.94,3.72-2.68,2.48-4.02,6.8-4.02,12.96v33.12h-16.8V52.8h16.8v10.32c2.16-3.52,4.98-6.28,8.46-8.28Z"/>
        <path class="cls-1" d="m990.97,67.92c2.68-5.2,6.34-9.2,10.98-12,4.64-2.8,9.8-4.2,15.48-4.2,4.32,0,8.44.94,12.36,2.82,3.92,1.88,7.04,4.38,9.36,7.5v-31.56h17.04v88.8h-17.04v-9.84c-2.08,3.28-5,5.92-8.76,7.92-3.76,2-8.12,3-13.08,3-5.6,0-10.72-1.44-15.36-4.32-4.64-2.88-8.3-6.94-10.98-12.18-2.68-5.24-4.02-11.26-4.02-18.06s1.34-12.68,4.02-17.88Zm45.9,7.62c-1.6-2.92-3.76-5.16-6.48-6.72-2.72-1.56-5.64-2.34-8.76-2.34s-6,.76-8.64,2.28c-2.64,1.52-4.78,3.74-6.42,6.66-1.64,2.92-2.46,6.38-2.46,10.38s.82,7.5,2.46,10.5c1.64,3,3.8,5.3,6.48,6.9,2.68,1.6,5.54,2.4,8.58,2.4s6.04-.78,8.76-2.34c2.72-1.56,4.88-3.8,6.48-6.72,1.6-2.92,2.4-6.42,2.4-10.5s-.8-7.58-2.4-10.5Z"/>
        <path class="cls-1" d="m1073.77,42.06c-1.96-1.88-2.94-4.22-2.94-7.02s.98-5.14,2.94-7.02c1.96-1.88,4.42-2.82,7.38-2.82s5.42.94,7.38,2.82c1.96,1.88,2.94,4.22,2.94,7.02s-.98,5.14-2.94,7.02c-1.96,1.88-4.42,2.82-7.38,2.82s-5.42-.94-7.38-2.82Zm15.66,10.74v66.48h-16.8V52.8h16.8Z"/>
        <path class="cls-1" d="m1118.23,116.1c-5.12-2.84-9.14-6.86-12.06-12.06-2.92-5.2-4.38-11.2-4.38-18s1.5-12.8,4.5-18c3-5.2,7.1-9.22,12.3-12.06,5.2-2.84,11-4.26,17.4-4.26s12.2,1.42,17.4,4.26c5.2,2.84,9.3,6.86,12.3,12.06,3,5.2,4.5,11.2,4.5,18s-1.54,12.8-4.62,18c-3.08,5.2-7.24,9.22-12.48,12.06-5.24,2.84-11.1,4.26-17.58,4.26s-12.16-1.42-17.28-4.26Zm25.86-12.6c2.68-1.48,4.82-3.7,6.42-6.66,1.6-2.96,2.4-6.56,2.4-10.8,0-6.32-1.66-11.18-4.98-14.58-3.32-3.4-7.38-5.1-12.18-5.1s-8.82,1.7-12.06,5.1c-3.24,3.4-4.86,8.26-4.86,14.58s1.58,11.18,4.74,14.58c3.16,3.4,7.14,5.1,11.94,5.1,3.04,0,5.9-.74,8.58-2.22Z"/>
        <path class="cls-1" d="m1238.58,59.34c4.88,5,7.32,11.98,7.32,20.94v39h-16.8v-36.72c0-5.28-1.32-9.34-3.96-12.18-2.64-2.84-6.24-4.26-10.8-4.26s-8.3,1.42-10.98,4.26c-2.68,2.84-4.02,6.9-4.02,12.18v36.72h-16.8V52.8h16.8v8.28c2.24-2.88,5.1-5.14,8.58-6.78,3.48-1.64,7.3-2.46,11.46-2.46,7.92,0,14.32,2.5,19.2,7.5Z"/>
        <path class="cls-1" d="m1272.66,117.42c-4.32-1.96-7.74-4.62-10.26-7.98-2.52-3.36-3.9-7.08-4.14-11.16h16.92c.32,2.56,1.58,4.68,3.78,6.36,2.2,1.68,4.94,2.52,8.22,2.52s5.7-.64,7.5-1.92c1.8-1.28,2.7-2.92,2.7-4.92,0-2.16-1.1-3.78-3.3-4.86-2.2-1.08-5.7-2.26-10.5-3.54-4.96-1.2-9.02-2.44-12.18-3.72-3.16-1.28-5.88-3.24-8.16-5.88-2.28-2.64-3.42-6.2-3.42-10.68,0-3.68,1.06-7.04,3.18-10.08,2.12-3.04,5.16-5.44,9.12-7.2s8.62-2.64,13.98-2.64c7.92,0,14.24,1.98,18.96,5.94,4.72,3.96,7.32,9.3,7.8,16.02h-16.08c-.24-2.64-1.34-4.74-3.3-6.3-1.96-1.56-4.58-2.34-7.86-2.34-3.04,0-5.38.56-7.02,1.68-1.64,1.12-2.46,2.68-2.46,4.68,0,2.24,1.12,3.94,3.36,5.1,2.24,1.16,5.72,2.34,10.44,3.54,4.8,1.2,8.76,2.44,11.88,3.72,3.12,1.28,5.82,3.26,8.1,5.94,2.28,2.68,3.46,6.22,3.54,10.62,0,3.84-1.06,7.28-3.18,10.32-2.12,3.04-5.16,5.42-9.12,7.14-3.96,1.72-8.58,2.58-13.86,2.58s-10.32-.98-14.64-2.94Z"/>
      </g>
      <g>
        <g>
          <polygon class="cls-1" points="150 150 139.29 150 139.29 148.05 148.05 148.05 148.05 139.29 150 139.29 150 150"/>
          <polygon class="cls-1" points="10.71 150 0 150 0 139.29 1.95 139.29 1.95 148.05 10.71 148.05 10.71 150"/>
          <polygon class="cls-1" points="1.95 10.71 0 10.71 0 0 10.71 0 10.71 1.95 1.95 1.95 1.95 10.71"/>
          <polygon class="cls-1" points="150 10.71 148.05 10.71 148.05 1.95 139.29 1.95 139.29 0 150 0 150 10.71"/>
        </g>
        <g>
          <g>
            <polygon class="cls-1" points="122.43 71.46 119.99 73.89 115.34 78.55 109.97 83.91 108.25 85.64 101.16 92.73 99.94 93.94 94.07 99.82 89.92 103.96 79.89 113.99 37.36 113.99 44.45 106.9 47.38 103.96 51.54 99.82 57.41 93.94 58.63 92.73 65.72 85.64 67.44 83.91 72.8 78.55 77.46 73.89 87.49 63.86 94.07 57.28 86.98 50.19 83.33 53.84 73.31 63.86 72.3 63.86 72.8 64.37 65.71 71.46 63.28 73.89 58.63 78.55 53.26 83.91 51.54 85.64 44.45 92.73 43.23 93.94 37.36 99.81 33.2 103.96 23.18 113.99 9 113.99 30.27 92.72 37.36 85.64 39.08 83.91 44.45 78.55 49.1 73.89 51.54 71.46 58.62 64.37 79.89 43.1 86.98 36.01 108.25 57.28 101.67 63.86 100.65 63.86 101.16 64.37 79.89 85.64 72.81 92.73 71.59 93.94 65.72 99.82 61.56 103.96 75.74 103.96 85.76 93.94 86.98 92.73 94.07 85.64 95.79 83.91 101.16 78.55 105.81 73.89 108.25 71.46 115.34 64.37 122.43 71.46"/>
            <polygon class="cls-1" points="136.6 113.99 94.07 113.99 101.16 106.91 104.1 103.96 108.25 99.82 114.12 93.94 115.34 92.73 116.55 93.94 122.42 99.81 126.58 103.96 136.6 113.99"/>
          </g>
          <circle class="cls-1" cx="132.9" cy="96.3" r="7.8"/>
        </g>
      </g>
    </g>
  </g>
</svg>